<svg xmlns="http://www.w3.org/2000/svg" xml:space="preserve" width="816" height="11in" style="shape-rendering:geometricPrecision;text-rendering:geometricPrecision;image-rendering:optimizeQuality;fill-rule:evenodd;clip-rule:evenodd" viewBox="3035 4285 2430 2430">
  <defs>
    <linearGradient id="a" gradientUnits="userSpaceOnUse" x1="4096.25" y1="4185.15" x2="3775.88" y2="5947.2">
      <stop offset="0" style="stop-color:#e84142"/>
      <stop offset="1" style="stop-color:#fefefe"/>
    </linearGradient>
    <linearGradient id="b" gradientUnits="userSpaceOnUse" x1="3027.92" y1="5544.13" x2="4536.72" y2="5818.46">
      <stop offset="0" style="stop-color:#1969ff"/>
      <stop offset="1" style="stop-color:#fefefe"/>
    </linearGradient>
    <linearGradient id="c" gradientUnits="userSpaceOnUse" x1="4294.13" y1="6722.08" x2="4568.46" y2="5213.28">
      <stop offset="0" style="stop-color:#8247e5"/>
      <stop offset="1" style="stop-color:#fefefe"/>
    </linearGradient>
    <linearGradient id="d" gradientUnits="userSpaceOnUse" x1="5570.31" y1="5423.4" x2="4084.91" y2="5153.33">
      <stop offset="0" style="stop-color:#f0b90b"/>
      <stop offset="1" style="stop-color:#fefefe"/>
    </linearGradient>
  </defs>
  <path d="M3764 5500c0-268 217-486 485-486s486 217 486 486c0 268-217 486-486 486-268 0-485-217-485-486z" style="fill:#000"/>
  <path d="M5021 4949c138 8 288 52 444 152 0 0-494-806-1410-450 0 0-244 333 91 750 8-11 47-61 112-124-5 25-9 52-12 80 13-2 76-10 167-8 202 3 542 51 771 307 92 103 167 240 207 421 0 0 165-686-370-1128z" style="fill:#f0b90b"/>
  <path d="M3109 4923s-165 686 370 1128c-138-8-288-52-444-152 0 0 494 806 1410 450 0 0 244-333-91-750-8 11-47 61-112 124 5-25 9-52 12-80-54 8-961 112-1144-720z" style="fill:#1969ff"/>
  <path d="M4414 5349c-21 14-43 30-65 48 11 8 61 47 124 112-25-5-52-9-80-12 8 54 112 961-720 1144 0 0 686 165 1128-370-8 138-52 288-152 444 0 0 602-369 536-1059-229-256-569-304-771-307z" style="fill:#8247e5"/>
  <path d="M4827 4359s-686-165-1128 370c8-138 52-288 152-444 0 0-806 494-450 1410 0 0 333 244 750-91-11-8-61-47-124-112 25 5 52 9 80 12-8-54-112-961 720-1144z" style="fill:url(#a)"/>
  <path d="M3109 4923s-165 686 370 1128c-138-8-288-52-444-152 0 0 494 806 1410 450 0 0 244-333-91-750-8 11-47 61-112 124 5-25 9-52 12-80-54 8-961 112-1144-720z" style="fill:url(#b)"/>
  <path d="M3673 6641s686 165 1128-370c-8 138-52 288-152 444 0 0 806-494 450-1410 0 0-333-244-750 91 11 8 61 47 124 112-25-5-52-9-80-12 8 54 112 961-720 1144z" style="fill:url(#c)"/>
  <path d="M5391 6077s165-686-370-1128c138 8 288 52 444 152 0 0-369-602-1060-536-256 229-303 569-307 771 14 21 30 43 48 65 8-11 47-61 112-124-5 25-9 52-12 80 54-8 961-112 1144 720z" style="fill:url(#d)"/>
</svg>
